{"title":"Doc Martin S07E04 x264 RB58.mp4","uid":12508408,"size":529452953,"categoryP":"video","categoryS":"tv_shows","magnet":"?xt=urn:btih:48de4bd3a01070dc2e173eb8001b1dad7eabf0b1&amp;dn=Doc+Martin+S07E04+x264+RB58.mp4&amp;tr=udp%3A%2F%2Ftracker.leechers-paradise.org%3A6969&amp;tr=udp%3A%2F%2Fzer0day.ch%3A1337&amp;tr=udp%3A%2F%2Fopen.demonii.com%3A1337&amp;tr=udp%3A%2F%2Ftracker.coppersurfer.tk%3A6969&amp;tr=udp%3A%2F%2Fexodus.desync.com%3A6969","seeders":8,"leechers":2,"uploader":"RedBaron58","files":1,"time":1443487480,"description":"Doc Martin S07E04 - Education, Education, Education x264 mp4\r\n \nhttp://www.imdb.com/title/tt0408381/\r\n\r\nTrailer:\r\n\r\n\r\nPlease be patient My intial upload speed is limited.\r\nThank you for your kind comments and feedback on my other torrents, your feedback is welcome.\r\n\r\n\r\nAbout the Episode:\r\nLouisa and Martin have their first therapy session together, though neither of them was expecting \r\nthey would be given homework, while Morwenna is not happy about it when a teenager on work experience \r\nstarts trying to boss her around in the surgery. \r\nMrs Tishell is surprised when her husband Clive returns and tells her he wants to give things another go, \r\nand Louisa has to call Martin when one of her pupils collapses during a school excursion. \r\n \r\nComedy drama, starring Martin Clunes and Caroline Catz\r\n\r\n\r\nI hope you enjoy.\r\n\r\n\r\nTechnical:\r\n\r\nGeneral\r\nComplete name                            : H:Doc Martin S07E04 x264 RB58.mp4\r\nFormat                                   : MPEG-4\r\nFormat profile                           : Base Media\r\nCodec ID                                 : isom\r\nFile size                                : 505 MiB\r\nDuration                                 : 46mn 16s\r\nOverall bit rate                         : 1 525 Kbps\r\nWriting application                      : Lavf54.63.104\r\n\r\nVideo\r\nID                                       : 1\r\nFormat                                   : AVC\r\nFormat/Info                              : Advanced Video Codec\r\nFormat profile                           :   \r\nFormat settings, CABAC                   : Yes\r\nFormat settings, ReFrames                : 4 frames\r\nCodec ID                                 : avc1\r\nCodec ID/Info                            : Advanced Video Coding\r\nDuration                                 : 46mn 16s\r\nBit rate                                 : 1 400 Kbps\r\nWidth                                    : 832 pixels\r\nHeight                                   : 468 pixels\r\nDisplay aspect ratio                     : 16:9\r\nFrame rate mode                          : Constant\r\nFrame rate                               : 25.000 fps\r\nColor space                              : YUV\r\nChroma subsampling                       : 4:2:0\r\nBit depth                                : 8 bits\r\nScan type                                : Progressive\r\nBits/(Pixel*Frame)                       : 0.144\r\nStream size                              : 463 MiB (92%)\r\nWriting library                          : x264 core 123 r2189 35cf912\r\nEncoding settings                        : cabac=1 / ref=3 / deblock=1:0:0\r\n\r\nAudio\r\nID                                       : 2\r\nFormat                                   : AAC\r\nFormat/Info                              : Advanced Audio Codec\r\nFormat profile                           : LC\r\nCodec ID                                 : 40\r\nDuration                                 : 46mn 16s\r\nBit rate mode                            : Constant\r\nBit rate                                 : 117 Kbps\r\nChannel(s)                               : 2 channels\r\nChannel positions                        : Front: L R\r\nSampling rate                            : 48.0 KHz\r\nCompression mode                         : Lossy\r\nStream size                              : 38.7 MiB (8%)","torrent":{"xt":"urn:btih:48de4bd3a01070dc2e173eb8001b1dad7eabf0b1","amp;dn":"Doc+Martin+S07E04+x264+RB58.mp4","amp;tr":["udp%3A%2F%2Ftracker.leechers-paradise.org%3A6969","udp%3A%2F%2Fzer0day.ch%3A1337","udp%3A%2F%2Fopen.demonii.com%3A1337","udp%3A%2F%2Ftracker.coppersurfer.tk%3A6969","udp%3A%2F%2Fexodus.desync.com%3A6969"],"infoHash":"48de4bd3a01070dc2e173eb8001b1dad7eabf0b1","infoHashBuffer":{"type":"Buffer","data":[72,222,75,211,160,16,112,220,46,23,62,184,0,27,29,173,126,171,240,177]},"announce":[],"urlList":[]}}